/* XPM */
static char *_0b0740fdcf74c29c02fd13f9ff84928[] = {
/* columns rows colors chars-per-pixel */
"32 32 188 2 ",
"   c #1D82BE",
".  c #1E82BE",
"X  c #1F82BE",
"o  c #1E83BE",
"O  c #1F83BE",
"+  c #1F83BF",
"@  c #2083BF",
"#  c #2183BF",
"$  c #2084BF",
"%  c #2184BF",
"&  c #2284BF",
"*  c #2285BF",
"=  c #2385BF",
"-  c #2485BF",
";  c #2285C0",
":  c #2385C0",
">  c #2586C0",
",  c #2686C0",
"<  c #2687C0",
"1  c #2787C0",
"2  c #2687C1",
"3  c #2787C1",
"4  c #2788C0",
"5  c #2888C1",
"6  c #2988C1",
"7  c #2A89C1",
"8  c #2A89C2",
"9  c #2B89C2",
"0  c #2C89C2",
"q  c #2C8AC2",
"w  c #2D8BC2",
"e  c #2D8AC3",
"r  c #2D8BC3",
"t  c #2E8BC3",
"y  c #2F8BC3",
"u  c #308CC3",
"i  c #318CC3",
"p  c #308DC3",
"a  c #318DC3",
"s  c #318CC4",
"d  c #318DC4",
"f  c #328DC4",
"g  c #338EC4",
"h  c #338EC5",
"j  c #348FC4",
"k  c #348FC5",
"l  c #358FC5",
"z  c #368FC5",
"x  c #3590C5",
"c  c #3690C5",
"v  c #3791C6",
"b  c #3891C6",
"n  c #3A92C6",
"m  c #3B92C6",
"M  c #3B93C6",
"N  c #3A92C7",
"B  c #3B93C7",
"V  c #3C93C6",
"C  c #3C93C7",
"Z  c #3E94C7",
"A  c #3F94C7",
"S  c #3E95C7",
"D  c #3F95C7",
"F  c #3F96C9",
"G  c #4493C3",
"H  c #4495C4",
"J  c #4595C5",
"K  c #4997C6",
"L  c #4A97C6",
"P  c #4E99C6",
"I  c #4D9AC7",
"U  c #4095C8",
"Y  c #4096C8",
"T  c #4196C8",
"R  c #4296C8",
"E  c #4297C8",
"W  c #4297C9",
"Q  c #4397C9",
"!  c #4498C9",
"~  c #4598C9",
"^  c #4599C9",
"/  c #4699C9",
"(  c #4498CB",
")  c #479ACA",
"_  c #4899CA",
"`  c #489ACA",
"'  c #499ACA",
"]  c #499BCB",
"[  c #4A9BCB",
"{  c #4C9CCB",
"}  c #489BCC",
"|  c #489BCD",
" . c #4B9CCD",
".. c #4D9CCC",
"X. c #4D9DCC",
"o. c #4D9DCD",
"O. c #4E9DCC",
"+. c #4E9DCD",
"@. c #4E9ECC",
"#. c #4F9ECC",
"$. c #4E9ECD",
"%. c #539DCA",
"&. c #509FCD",
"*. c #519FCD",
"=. c #519FCE",
"-. c #52A0CD",
";. c #53A0CE",
":. c #54A0CE",
">. c #54A1CE",
",. c #55A1CE",
"<. c #55A1CF",
"1. c #57A2CE",
"2. c #57A2CF",
"3. c #58A3CF",
"4. c #5BA4CF",
"5. c #58A3D0",
"6. c #59A3D0",
"7. c #5AA4D0",
"8. c #5BA4D0",
"9. c #5BA5D0",
"0. c #5AA5D2",
"q. c #5BA5D3",
"w. c #5DA6D2",
"e. c #6AA6C9",
"r. c #6FA9CC",
"t. c #71AACC",
"y. c #60A5D0",
"u. c #61A9D3",
"i. c #64A8D1",
"p. c #62A9D4",
"a. c #63A9D4",
"s. c #68AAD3",
"d. c #6AACD2",
"f. c #6AACD3",
"g. c #6BACD3",
"h. c #6CACD3",
"j. c #6DADD3",
"k. c #6EAED3",
"l. c #6DAFD7",
"z. c #70B0D6",
"x. c #72B1D7",
"c. c #74B2D7",
"v. c #7EB3D2",
"b. c #7EB3D3",
"n. c #72B1D8",
"m. c #72B2D8",
"M. c #73B2D8",
"N. c #77B5DA",
"B. c #7AB7DA",
"V. c #89B5CF",
"C. c #80B5D5",
"Z. c #81B5D5",
"A. c #81B6D6",
"S. c #83B7D6",
"D. c #84B7D6",
"F. c #84B8D7",
"G. c #85B8D7",
"H. c #87BAD7",
"J. c #87B9D8",
"K. c #88BAD8",
"L. c #A9CCDE",
"P. c #B3CFDF",
"I. c #BFCFD9",
"U. c #AFCFE0",
"Y. c #C1CFD8",
"T. c #C2D1D8",
"R. c #C2D0D9",
"E. c #C3D1D9",
"W. c #C1D1DA",
"Q. c #C4D2DA",
"!. c #C5D3DA",
"~. c #D1DCE3",
"^. c #D1DDE3",
"/. c #CEE3EE",
"(. c #D0E3EE",
"). c #D3E5EE",
"_. c #D4E5EF",
"`. c #D5E5EF",
"'. c #D6E5EF",
"]. c #DBE6EA",
"[. c #D8E5EC",
"{. c #DBE7EC",
"}. c #DCE7EC",
"|. c #DEE9EE",
" X c #E8EEF1",
".X c #E9EEF1",
"XX c #F3F4F5",
"oX c None",
/* pixels */
"oXoXoXoXoXoXoXoXoXoXoXoXoXoXoXoXoXoXoXoXoXoXoXoXoXoXoXoXoXoXoXoX",
"oXoXoXoXoXoXoXoXoXoXoXoX      ; ;       oXoXoXoXoXoXoXoXoXoXoXoX",
"oXoXoXoXoXoXoXoXoX    ; - < < 2 < < < - % @   oXoXoXoXoXoXoXoXoX",
"oXoXoXoXoXoXoXoX@ % < 6 5 q e e e e q 5 5 < % @ oXoXoXoXoXoXoXoX",
"oXoXoXoXoXoX  % < < q e g g g l l l g g q 5 5 < %   oXoXoXoXoXoX",
"oXoXoXoXoX  % < q q g l v n n n B A n n l g y 5 < -   oXoXoXoXoX",
"oXoXoXoX  % 5 q q v n n A W W G G F F F A v l u q 5 %   oXoXoXoX",
"oXoXoXoX% - q i v n D W ~ W J Y.Q.G W ~ W D n l u q < @ oXoXoXoX",
"oXoXoX% < 5 g l A W W ] ] K Y.(./.Q.K [ ] Q U n l u q <   oXoXoX",
"oXoX  % 5 y l n A Q ] [ { Q.`.=.=.).!.L { { Q W n l q 6 %   oXoX",
"oXoXO - q i n D Q ] +.%.I.`.9.6.6.6.`.Q.%.+.] ~ D v i q - @ oXoX",
"oXoX% 5 q v n U ] +.+.v. Xa.9.a.a.q.u. Xv.+.{ ] U D l u 5 % oXoX",
"oXO ; 5 g v A ~ { *.=.S.].e.r.t.t.r.e.].D.=.=.{ W F v g 5 - @ oX",
"oX  < q g n U ] %.*.1.A.XX~.~.~.~.~.~.XXD.*.1.+.] F B g q < @ oX",
"oXO 2 r v n W ] =.3.1.J.|.m.N.B.B.N.m.|.H.3.3.=.] U n g e <   oX",
"oXO 2 r g B W ] =.3.3.K.{.f.z.c.c.z.f.{.H.3.3.=.] W A v r < @ oX",
"oX  2 r l n W ] =.5.6.K.}.k.z.m.m.z.k.|.J.5.3.-.] W M v 5 2 ; oX",
"oX% 2 e g D W ] +.1.1.K.{.h.l.V.V.l.h.{.J.1.1.&.] W M k r 2   oX",
"oX  < 5 g n U ~ { 1.5.A.{.s.a.P.P.a.s.{.G.1.1.%.] U n g q < @ oX",
"oX  < 5 g v D W { -.=.D.}.i.w.U.U.w.i.}.A.=.=.{ ~ D v g 5 -   oX",
"oXoX; 5 q l A W ] { +.A.{.w.3.L.L.5.w.].A.{ { ] W A l g 5 @ oXoX",
"oXoX@ < q l n A W ] { 4.k.9.3.h.f.6.4.k.3.+.] Q D l g q < @ oXoX",
"oXoX  % 5 q g n U ~ { +.{ 1.1.1.1.1.1.+.+.{ Q A n g q 5 ;   oXoX",
"oXoXoX@ < 5 i j A U Q ] { +.+.-.=.=.{ { ] Q U A l u q - @ oXoXoX",
"oXoXoXoX% < q i l n D W ~ ~ ] ] ] ] ~ ~ U D n v g 5 6 @ oXoXoXoX",
"oXoXoXoX  % 5 5 i l n n U W W W ~ W W D A n l g q 6 %   oXoXoXoX",
"oXoXoXoXoX  % 5 5 g i l n M M M n D n n l i i 5 < % @ oXoXoXoXoX",
"oXoXoXoXoXoX  % < 5 q i i i k v l g g g q q 5 - @   oXoXoXoXoXoX",
"oXoXoXoXoXoXoXoX@ % - 5 5 q y q q y q 5 5 - ; % oXoXoXoXoXoXoXoX",
"oXoXoXoXoXoXoXoXoX  % % < - 2 < 2 2 < < % @   oXoXoXoXoXoXoXoXoX",
"oXoXoXoXoXoXoXoXoXoXoXoX  @ @ @ %       oXoXoXoXoXoXoXoXoXoXoXoX",
"oXoXoXoXoXoXoXoXoXoXoXoXoXoXoXoXoXoXoXoXoXoXoXoXoXoXoXoXoXoXoXoX"
};
