/* XPM */
static char *_cf04219cd184c1bb8ba439266bd2ed1[] = {
/* columns rows colors chars-per-pixel */
"16 16 19 1 ",
"  c #0072B6",
". c #0B79B9",
"X c #0C79B9",
"o c #0C79BA",
"O c #0F7ABA",
"+ c #117BBB",
"@ c #338EC5",
"# c #358FC5",
"$ c #4C9CCC",
"% c #64A9D3",
"& c #68ACD4",
"* c #69ACD4",
"= c #6DAED5",
"- c #72B2D7",
"; c #BFDCED",
": c #CAE1F0",
"> c #CAE2F0",
", c gray100",
"< c None",
/* pixels */
"<<<<<<<<<<<<<<<<",
"<<<<<<    <<<<<<",
"<<<<        <<<<",
"<<<    $#    <<<",
"<<    O,,O    <<",
"<<    ,..,    <<",
"<    ,-@@=,    <",
"<    ,,,,,,    <",
"<    ,*++&,    <",
"<    ,*::%,    <",
"<<   , ;; ,   <<",
"<<            <<",
"<<<          <<<",
"<<<<        <<<<",
"<<<<<<    <<<<<<",
"<<<<<<<<<<<<<<<<"
};
