/* XPM */
static char *bd04623b0cbc4b12aeacdd1c03142679[] = {
/* columns rows colors chars-per-pixel */
"64 64 66 1 ",
"  c #1E82BE",
". c #2184BF",
"X c #769AAF",
"o c #2586C0",
"O c #2887C1",
"+ c #2788C1",
"@ c #2B8AC2",
"# c #328EC5",
"$ c #3790C6",
"% c #3B92C6",
"& c #3F94C8",
"* c #4594C4",
"= c #4996C6",
"- c #4D99C7",
"; c #4296C9",
": c #4699CA",
"> c #4B9BCC",
", c #519CC7",
"< c #519ECD",
"1 c #509FD0",
"2 c #55A1CE",
"3 c #5BA3CE",
"4 c #55A4D3",
"5 c #5CA5D1",
"6 c #7EADC9",
"7 c #60A7D2",
"8 c #64AAD4",
"9 c #6BADD5",
"0 c #74ADD0",
"q c #6EB0D8",
"w c #73B1D7",
"e c #75B3D8",
"r c #78B4D8",
"t c #83A4B9",
"y c #8AA9BC",
"u c #9AABB6",
"i c #9FB3BF",
"p c #A0B3BF",
"a c #9EB6C3",
"s c #84B5D2",
"d c #89B7D2",
"f c #84B9D7",
"g c #8DB9D3",
"h c #86BAD8",
"j c #89BBD9",
"k c #9CBFD4",
"l c #A3B5C0",
"z c #A8BDC9",
"x c #9CC1D6",
"c c #9BC4DC",
"v c #A1C6DB",
"b c #9ECAE4",
"n c #A5CEE6",
"m c #A8CCE2",
"M c #BCD8E9",
"N c #C1DAE7",
"B c #CFDCE4",
"V c #C3DBE9",
"C c #D1DDE5",
"Z c #F7EDE6",
"A c #FDF5ED",
"S c #FFF7F3",
"D c #FFFAF5",
"F c #F6FAFD",
"G c #FEFEFC",
"H c None",
/* pixels */
"HHHHHHHHHHHHHHHHHHHHHHHHHHHHHHHHHHHHHHHHHHHHHHHHHHHHHHHHHHHHHHHH",
"HHHHHHHHHHHHHHHHHHHHHHHHHHHHHHHHHHHHHHHHHHHHHHHHHHHHHHHHHHHHHHHH",
"HHHHHHHHHHHHHHHHHHHHHHHHHHHHHHHHHHHHHHHHHHHHHHHHHHHHHHHHHHHHHHHH",
"HHHHHHHHHHHHHHHHHHHHHHHHHHH           HHHHHHHHHHHHHHHHHHHHHHHHHH",
"HHHHHHHHHHHHHHHHHHHHHHH      o.oo.o .     HHHHHHHHHHHHHHHHHHHHHH",
"HHHHHHHHHHHHHHHHHHHHH  ...ooooooooooooo. .  HHHHHHHHHHHHHHHHHHHH",
"HHHHHHHHHHHHHHHHHHH  ..o+.+oo+++++o@oooo.o....HHHHHHHHHHHHHHHHHH",
"HHHHHHHHHHHHHHHHH  ..o.o+@@@@@@@@@@@@@@@++@.....HHHHHHHHHHHHHHHH",
"HHHHHHHHHHHHHHH   .ooO@@@@@@@@####@@@@@.#.@.....  HHHHHHHHHHHHHH",
"HHHHHHHHHHHHHH  ooooO@@@@###############@#@#.##.o  HHHHHHHHHHHHH",
"HHHHHHHHHHHHH  oooO@@@#######%#$$$$$$####@#@#...o.  HHHHHHHHHHHH",
"HHHHHHHHHHHH  oo@O@@@###%#%#%%%%$%%%%$$$$$##.#$#ooo. HHHHHHHHHHH",
"HHHHHHHHHHH  oo+@@@###$$%%%%&%&&&&&&&$%%$$$$#.#.@++o  HHHHHHHHHH",
"HHHHHHHHHH  oo+@@@##$#%%%&%&;;;&%&:&&&&&%%%$$$$.@@+oo  HHHHHHHHH",
"HHHHHHHHH .ooO@@###$$%%%&;;:;:;=X=::::;&;%%%%$$##@@+oo  HHHHHHHH",
"HHHHHHHH  .o@@@@##$%%%&;;:::::;lZl&:::::;;;%%%$##@@@+oo  HHHHHHH",
"HHHHHHHH..oo@@###$$%;;;;:::>>:iSGDl=:>:>::;;&%%###@@@ooo HHHHHHH",
"HHHHHHH .oo@@@##$%$&;:::>>>>=iDFmFDl=1>>::::;;%%$###@@oo. HHHHHH",
"HHHHHHH oo@@###$%%&;:::>><>=aSGh%fFDl:>>>>>::;&%%%##@@@o. HHHHHH",
"HHHHHH o.o@@###$%;;:::><<>>lSFh>4:fGDl-2<<>::;;;%%##@@@oo. HHHHH",
"HHHHHH .O@@@##%%;;:::><<<>pDGj>553>fFDp,1<>>>::;&%%##@@@o. HHHHH",
"HHHHH .oo@@###%%;:::<><<>lSGj<55575<jFDl,<<<>:::;%%###@@@o. HHHH",
"HHHHH .oo@##$%%;;;:><<<<aSGj155773851jFSl<<<<>>:;&%%%##@O.. HHHH",
"HHHH .o+@@###%%;::>,<<2<CGc>8888888871cGC<21<>>:;;&%###@@@o. HHH",
"HHHH  o+@@##%%;;::<<122<CGs58888888885sGB<32<<>::;&&%##@@oo. HHH",
"HHHH .o@@##$%%&::>><2332CGs48888888884sGB2322<<>::&&%###@+o. HHH",
"HHHH oo+@##%%%:::><11333CGztyyyyyyyyytzGB35322>>>:;&%$##@@+o HHH",
"HHH .oo@@##%%;::><<<3333BGDSSSSSSSDSSSGGB3533<2>>:;&%%##@@oo. HH",
"HHH .o+@@##%%&::><<33333BGMbnnnnnnnnnbMGB373222>>::;%%##@@oo. HH",
"HHH .o+@##$%%;::><<23377CGd58899999885dGC773322<>::;%%%##@@o. HH",
"HHH .oO@@#$%&;::><<23573CGg8wwwwrwwww8gGC575322<>::;&%$#@@@o. HH",
"HHH .o@@##$%&;::><135577CGg9qwwrrrwwq9gGC575532<>::;&%$##@ooo HH",
"HHH oo@@###%;;:>><243777CGg8weeerrwew9gGC777332>>>:;&%###@@oo HH",
"HHH  o+@##$%%;::<<223377CGg9qeeerwwww8gGB773322<>>:;%%###@oo  HH",
"HHH ooo@@#%%&;:::<223373CGg8qweqwwwww9gGC375322<>::;&%%##@@oo HH",
"HHH  o+@@##%%;::<>223383CGg8qwqyu6wq98gGC775322>>>;;&%$#@@@o. HH",
"HHH  oo@###%%;::><<23553CGg89w8kAx9q98gGB35332<>>>:&%%##@@+o  HH",
"HHH  oO@@##%%%::><<<2553BGd8998vGx8998gGB355222<>:;&%%$#@@ooo HH",
"HHHH oo@@##%%;;::><22332BGd8998xDx8997dGB35522<>::;&%%#@#@Oo HHH",
"HHHH.ooO@###%%&::>><2233BGd5887xDx8887dGB2322<>>::;&%###@oO. HHH",
"HHHH ooo@@##%%;;:><>2232CGd5888kDx5882sGB232<<>>:;&%%$##@@o. HHH",
"HHHH  oo@@##%%%;:::<>22<CGd3783xGx3883dGC22<<<>::;%%##@@@o.. HHH",
"HHHHH ooO@@##%&&;::>><2<cV04383rNr57740Vv<2<>>::;;&%%#@@+o..HHHH",
"HHHHH  oo@###$%%;;:>:<<2<<2535552573352><2<<>>:;&&%###@@oo. HHHH",
"HHHHHH .o@@@##$&%;::><<<2222332333325222<<<>>:;;&%$##@@@oo HHHHH",
"HHHHHH .oo@@###$%&;:::>>><22222223222222<<>:::;;%%$##@@+oo HHHHH",
"HHHHHHH. oO@###%%%&;:::>><<22222222222<>:>:::;&%%$##@@@o. HHHHHH",
"HHHHHHH ooOO@@###%%&;=::>:>>><<<<<>2>>>>:>:=;&%%$###@@oo  HHHHHH",
"HHHHHHHH .oo@@@##$%%&&;;::>>><>>>><>>>:::;;&&%%$$#@@@+o. HHHHHHH",
"HHHHHHHH ..o+@@##$$%%&&;;::::>:>>>::>::=;;;&%%$##@@@+..  HHHHHHH",
"HHHHHHHHH  oo+@@@##$$%%&;&;;;::=:::=;;;&;&%%$$$#@@@@oo. HHHHHHHH",
"HHHHHHHHHH ..o@@@####%$%&&&;&;&&:&&;;;&&&%$$$##@@@@.o. HHHHHHHHH",
"HHHHHHHHHHH .oo+@@@####$$$%%*&&&&&&&*%%%$$$###@@@@o.  HHHHHHHHHH",
"HHHHHHHHHHHH .o.o@@@####$$$%$%$&$&$$$$$$####@@@@ooo. HHHHHHHHHHH",
"HHHHHHHHHHHHH ...@O@@@@##$$$$$$$$$$$#$#$##@#@@@+o.. HHHHHHHHHHHH",
"HHHHHHHHHHHHHH  o..OO@@@.$.$###########$.@#.@ooo.. HHHHHHHHHHHHH",
"HHHHHHHHHHHHHHH  ..oo+@@@@@@#@#@#@##@##.@@oooo..  HHHHHHHHHHHHHH",
"HHHHHHHHHHHHHHHHH ...ooo+@@@@@@@@@#.@.@@@ooooo  HHHHHHHHHHHHHHHH",
"HHHHHHHHHHHHHHHHHHH . .ooo++@++@.@.#@@..oo.   HHHHHHHHHHHHHHHHHH",
"HHHHHHHHHHHHHHHHHHHHH ....o.o.+.@.@...@.... HHHHHHHHHHHHHHHHHHHH",
"HHHHHHHHHHHHHHHHHHHHHHH    ....ooo....    HHHHHHHHHHHHHHHHHHHHHH",
"HHHHHHHHHHHHHHHHHHHHHHHHHHH         . HHHHHHHHHHHHHHHHHHHHHHHHHH",
"HHHHHHHHHHHHHHHHHHHHHHHHHHHHHHHHHHHHHHHHHHHHHHHHHHHHHHHHHHHHHHHH",
"HHHHHHHHHHHHHHHHHHHHHHHHHHHHHHHHHHHHHHHHHHHHHHHHHHHHHHHHHHHHHHHH"
};
