/* XPM */
static char *b5967e023f534687a12ea402c1e846c4[] = {
/* columns rows colors chars-per-pixel */
"128 128 92 1 ",
"  c #1E82BE",
". c #2184BF",
"X c #69899C",
"o c #759AB0",
"O c #789BB1",
"+ c #2486C0",
"@ c #2887C1",
"# c #2788C1",
"$ c #2B8AC2",
"% c #328EC5",
"& c #3690C6",
"* c #3B92C7",
"= c #3F95C8",
"- c #4596C6",
"; c #4996C3",
": c #4B99C7",
"> c #4196C9",
", c #4699CA",
"< c #4B9CCC",
"1 c #5C9FC7",
"2 c #519FCD",
"3 c #5C9FC8",
"4 c #4D9FD0",
"5 c #4FA0CF",
"6 c #54A1CE",
"7 c #59A2CF",
"8 c #4EA0D0",
"9 c #54A2D0",
"0 c #5CA5D1",
"q c #5EA8D4",
"w c #5BAAD8",
"e c #64A5CC",
"r c #68A7CD",
"t c #69A8CE",
"y c #77A7C5",
"u c #77A8C5",
"i c #7BADCB",
"p c #7EB0CE",
"a c #60A7D2",
"s c #64A9D3",
"d c #6BADD5",
"f c #66AED9",
"g c #70AFD6",
"h c #6FB0D6",
"j c #6CB0D8",
"k c #72B1D7",
"l c #76B3D8",
"z c #78B4D8",
"x c #8C989F",
"c c #869CA9",
"v c #8B9EA9",
"b c #909DA5",
"n c #8CA0AB",
"m c #93ADBC",
"M c #C0B5AF",
"N c #88ADC4",
"B c #83B0CC",
"V c #8BB4CC",
"C c #83B6D5",
"Z c #86B8D5",
"A c #8BBAD7",
"S c #8FBCD8",
"D c #91BDD8",
"F c #95C1DC",
"G c #9BC6DE",
"H c #A1C1D4",
"J c #B2CCDC",
"K c #9DC7E0",
"L c #9EC8E0",
"P c #B2D2E4",
"I c #BDD9E9",
"U c #C5C6C6",
"Y c #C8C3C1",
"T c #C7C7C8",
"R c #D5CEC9",
"E c #D6D0CC",
"W c #D8D1CD",
"Q c #DAD4D1",
"! c #D6D9DB",
"~ c #DDDCDB",
"^ c #C1DBE9",
"/ c #E5E2E0",
"( c #ECE9E7",
") c #EDEBEB",
"_ c #F2EEEB",
"` c #FBF2EC",
"' c #F6F7F6",
"] c #F7F8F7",
"[ c #F9F8F7",
"{ c #F7F8F8",
"} c #FFFFFF",
"| c None",
/* pixels */
"||||||||||||||||||||||||||||||||||||||||||||||||||||||||||||||||||||||||||||||||||||||||||||||||||||||||||||||||||||||||||||||||",
"||||||||||||||||||||||||||||||||||||||||||||||||||||||||||||||||||||||||||||||||||||||||||||||||||||||||||||||||||||||||||||||||",
"||||||||||||||||||||||||||||||||||||||||||||||||||||||||||||||||||||||||||||||||||||||||||||||||||||||||||||||||||||||||||||||||",
"||||||||||||||||||||||||||||||||||||||||||||||||||||||||||||||||||||||||||||||||||||||||||||||||||||||||||||||||||||||||||||||||",
"||||||||||||||||||||||||||||||||||||||||||||||||||||||||||||||||||||||||||||||||||||||||||||||||||||||||||||||||||||||||||||||||",
"||||||||||||||||||||||||||||||||||||||||||||||||||||||||||||||||||||||||||||||||||||||||||||||||||||||||||||||||||||||||||||||||",
"|||||||||||||||||||||||||||||||||||||||||||||||||||||||||               ||||||||||||||||||||||||||||||||||||||||||||||||||||||||",
"|||||||||||||||||||||||||||||||||||||||||||||||||||           .    +          ||||||||||||||||||||||||||||||||||||||||||||||||||",
"||||||||||||||||||||||||||||||||||||||||||||||||    . .. ........  .. ......     |||||||||||||||||||||||||||||||||||||||||||||||",
"|||||||||||||||||||||||||||||||||||||||||||||      +.......+..+++++.++.........     ||||||||||||||||||||||||||||||||||||||||||||",
"||||||||||||||||||||||||||||||||||||||||||    . +  +..+++++++++++++++.++++..+ ....     |||||||||||||||||||||||||||||||||||||||||",
"||||||||||||||||||||||||||||||||||||||||     +... +++++++++++###.#+###@@.++++++++...+    |||||||||||||||||||||||||||||||||||||||",
"||||||||||||||||||||||||||||||||||||||    . ..++++++####################@#+#+++++++...     |||||||||||||||||||||||||||||||||||||",
"||||||||||||||||||||||||||||||||||||    .+.++++++++#######$#$#$#$#$##$$#####++#+#+++++...    |||||||||||||||||||||||||||||||||||",
"||||||||||||||||||||||||||||||||||    ...+++++######@$#$$$$$$$$$$$$$$$$#$##$######++#+.++ ..   |||||||||||||||||||||||||||||||||",
"|||||||||||||||||||||||||||||||||  ....+++++#####@@%@$$$$$$$$$$$$$$$$$$%$$$$$$#$####+#++++...   ||||||||||||||||||||||||||||||||",
"|||||||||||||||||||||||||||||||   + +++++###@$#$.%%.$$$$%$%$$$%$%%%$%%$$$$$$$$.%.%%#..$.++++..    ||||||||||||||||||||||||||||||",
"||||||||||||||||||||||||||||||    + +++#+@@@$$$$%$$%$%%$$$%%%%%$$%$%%$%%%$%%%$%%%..$%$.$@@+.++...  |||||||||||||||||||||||||||||",
"||||||||||||||||||||||||||||   . ++++++@##@$$$$$%$.%%%%%%%%$%&&%%%%%%%%%%%$%%%$.%.%%$$%$##@++++...   |||||||||||||||||||||||||||",
"|||||||||||||||||||||||||||   ..++++++#@$$@%$$$%$%%%%%%%%&%&%%&&&&&%%%%%%%%%$%%%%%%.$$$$$##@++++...   ||||||||||||||||||||||||||",
"||||||||||||||||||||||||||   ..+++++@##$$$$$%$$%%%%%%%&%&&&&&&&&&&&&*&&%&&%%&%%%%%%%$%$$$$$@###.+...+  |||||||||||||||||||||||||",
"|||||||||||||||||||||||||   ..++####@$$#$%%$%%%%%&%%&&&&&&&&&&&&&&&&&&&&&&&&%%%&%$%$%$%$$$$$$#$#++++    ||||||||||||||||||||||||",
"||||||||||||||||||||||||   +++.+#@@$$$$%%$$%$%%%&&&&&&&**&*&&*****&*&*&*&*&&&&&%&%%%%$%$%$$$$###@++.+ .  |||||||||||||||||||||||",
"|||||||||||||||||||||||    ++++#@$@$$$$$$%%%&&%&&&&&&**&*****=&**=*-*&*=&****&&&&&&%&%%%$&$$$$#$##++++..  ||||||||||||||||||||||",
"||||||||||||||||||||||  +.++++##$@%$%$%%%%%%%&&&&**&*&*******>==**-*===*=******&*&&&&%%%%$%$$$.$####@++++  |||||||||||||||||||||",
"|||||||||||||||||||||    ++++####$$$$%$%%&&&&&*&*****-*-*->>=->=>>*-===*==******&*&&&&&%%%%%%$%$$###++++    ||||||||||||||||||||",
"||||||||||||||||||||   +++++##$#%##%%%%%%&&&********=-=>*>>>=>>>>>>>>>=>>*>>===******&&&%&%%$%%$$#$@#+++ ++  |||||||||||||||||||",
"|||||||||||||||||||  + +++++#$#%$$%%%%&&&&&*&**=*--*=*>>>>>>>>>>=>>>>>>>>>>>>====***&**&&&%%%%%$%$$##+++++.   ||||||||||||||||||",
"||||||||||||||||||   +++++@@$$$$$%%%%%&&&&****====>>>>>>,>,,,,>>X;>,,,>,;>>>>>======***&&&&%%%$%%%$@@@#++++ .  |||||||||||||||||",
"||||||||||||||||||   + +@@@@$$$%$%%%&&&*****====>>>>>,>,,,,,,,>cMv>,,,,,,,,>>>>>=====****&&&&%%%$@%%%#@#++++.  |||||||||||||||||",
"|||||||||||||||||  + ++#@@@$$$%%%%&%&&*&**=*==>>>>>,>,,,,,,<,,cE{Qc;,,,,,,,,,,,,>>=====*=*&&&&%%%%%@$$@@#@+...  ||||||||||||||||",
"||||||||||||||||  + ++#@@@$$$%$%%&%&&****===>>>>>,,,,<,<<,<,>cE}}}Qc,<<<<,,<,,,>,>>>===*****&&&%$%@%%$$$#++++..  |||||||||||||||",
"|||||||||||||||| . ++++@@$$$$%%%&%&&****>>>=>>>,,,,,,<<<<<,<cE}}}}}Qv:<<<,<<<,,,,,,>>>>>>****&&&%%%$%$%@##@@+....|||||||||||||||",
"|||||||||||||||   ++++##$$$$$%%%&&&******>>>>,,,,,<<,<<<<<,cE[}}}}}}Qc:<<<<<,<,<,,,,>>>>=>****&&%&%%$%$@$##@++..  ||||||||||||||",
"||||||||||||||  ..+++@@#$$%%%%&%&&****==>>>,,,,,<<<<<<<<<,cE}}}{P'}}}Qv:<<<<<<<<,,<,,>>>>=****&&&%%%%%%%$$#@+++....|||||||||||||",
"||||||||||||||  .++++@@%$$$%%%&&&***===>>>,,,,,<<<<<<<64:cE}}}{A*z]}}[Qn:522<<<<<<,,,,,>>>>=>*=&*&&%%%$@$$$@@++....|||||||||||||",
"|||||||||||||  ..+++@@@$%%%%%%&****===>>>,,,,,<<<<<<2<5<cW}}}[A,6<C'}}}Qv:9<<<2<<:<<,,,,->>>=****&&&%%$%$$#@#+++..  ||||||||||||",
"||||||||||||| ..+++#$#%@%$%%&&&&**====>,,,,<<<<<2<6<26<cE}}}[A<666<C'}}[Qv:9222<44,<<,<,>,>>==****&&&%&$%$$$$#+++.. ||||||||||||",
"||||||||||||  ..++###$$%%%%%%&&=*===>>>,,,<,::44<2229:cW[}}[A<67676<Z'}}}Qn2222222<<<,<,,>>>>>=***&&&%%%%%$$$+#++.. .|||||||||||",
"||||||||||||  .++###$$$%%$%&&&=&*===>>,,,<,<<2246<99<vE[}}[S<7767676<Z'}}}Wv26222244<<<,,<>->=>=***&&&%%$$%$$$##+....|||||||||||",
"|||||||||||   .+++#@%@%@%%&&&*&*====,,,,<,:4:2222652cE}}}[D<7007707775Z'}}}Qv26222222:<<,,,,>>>==**&&&%%%$%$$$##++.   ||||||||||",
"||||||||||| ..++@#@$@%%@%&&&*&====,,,,,,<<4:2222662cW[}}[D<007000000075Z'}}[Qv262222:4<<<,<,,>>>==***&&%%%%$$$$#+++++ ||||||||||",
"||||||||||  . ++@#@$%%%%%%&****====,,,,<<<42222692cR}}}[D20070000000000<A'}}}Wv26262224:<<<,,,>>===**&&&%%$%$$$#+++    |||||||||",
"||||||||||   +++@#$$@%%%%&&&**===,,,,<<<<44222692cE}}}[D20000saaq0aae0a02A'}}}Wn26662244<<<,,,,>>==***&&&%%$$$$##++++  |||||||||",
"||||||||||  .++##$$$$%%%&&&&*====>,,,<<<:2249666vE}}}[D200a0aaaaaaaaaa0a02A'}}}Qv6662222<<<<<,,,>====*&&&%%$%$$$@#++ . |||||||||",
"|||||||||   +++##$$%%$%%&&***==>,,,,:<<<24266663T[}}]D60aaasasaaasaas0asaa2A'}}[T36662226<<<<,,,>>==***&&%&$%$$$@@#++ . ||||||||",
"|||||||||  ++++##$$%$%%&&&***>>>,,,<<<:222666663!}}[G20aaassassssssssaaaaa09D}}}!e9766222<<<<,,,>>>=***&&&%%$%%$@#+++ . ||||||||",
"||||||||| . .+###$$$%%&&&***=>>>,,,<<:442666796e!}}_i7sassssstssssssssadass7y_}}!39766266<2<<,,,,>>==***&&%%%$@@@##+++. ||||||||",
"||||||||    ++#$%#@%%%%&&**==>>,,,<<<<2222277770!}}(i0sssssfsssstsdatssssss0i(}}!177766655<<<<<,,>>>>>**&&&%$%$$$###+..  |||||||",
"||||||||  +++###@$%$%%&&*&*>=>>>,,,<<<<297777770!}}(i0sssttfdtfdddddsftfsss0i(}}!eq777666555<<<,,,>>>*****%%%%%$$$##++...|||||||",
"||||||||   ++###%@%%%%&&***=>>>,,<<<<2292277707e!}}(iqssssftddftdtdatfdssssqi(}}!e7077766252<<<<<,>>==***&&&&$$$$@##++.. |||||||",
"|||||||  + +++##@%%%%&&&&*=*>>,,,,<<22229977700e!}}(iwsffffffffffffffffffffqi(}}!e0077976622<<<:,,;>>=>**&&%&%%$$$##++..  ||||||",
"||||||| + ++###$%$$%%%&*&>=->>,,,<<<<2299777000e!}})moooooOOOOooOOOOOOOooooom)}}!e00q77766622:<<,,,>>==**&&%%%$$$$$##+..  ||||||",
"|||||||  ..+##$$#$%%&&&*&=>=>,,,<:2<22999977000e!}}'!YYYYYYYYYYYYYYYYYYYYYYY!'}}!e00707766625<<<<,,,>>=****&%%%%$$##++....||||||",
"|||||||  .++##$$$%%%%&&*=*=>>>,,<<4222967700000t!}}}}}}}}}}}}}}}}}}}}}}}}}}}}}}}!eq00070766552:<<,,,>>>=*&&&&%&$$$#$#++.  ||||||",
"||||||| . ++###$$%%%&&*&&=>>>,,<,<<2226697000a0e!}}}}}}}}}}}}}}}}}}}}}}}}}}}}}}}!eq00077676562<<<<,,>>=****&%%%%$%@@#++.. ||||||",
"||||||| ..++##$$$%%%&&&**-=>>,,<<<<22666777a0s0t!}}}PFKKKKKKLLLLLLLLKGGLGGGFP}}}!rqa00777666622<<,,,>>>=*&&&&$%$%@%$#++   ||||||",
"||||||   ..###$$$%%%%&**-*=>,,,<<<<22269777a000t!}}_i0ssssffddddfdttfddtfss0p_}}!rq0a007766622<2,<,,,>===***&&%$%$###++ .  |||||",
"||||||  ..###$#%$$%%&*****>>>,<,<<226667777asssr!}}(BfdhgghgkkkkkkklhhhhdghfB(}}!r0s0a0076666<<<<<,,,>>=-**&&%%%$$$##+++.  |||||",
"||||||  .+.+##$$$%%%%&**==>>,,,<<<426666707a0s0t!}}(BddhhgggkkzkkkhllkkkgdhsB(}}!rsqa00077666652<<<,,>>=****&&%$%$$###+++  |||||",
"||||||  .++###$$%%%%&&**=>>>,,<<:2:26677000aaaqt!}}(BfdggkkkkkzkzkkzlhkhhhhfB(}}!rsss00006766<<<<<,,,>>=**&&&%%%$$###@+++  |||||",
"||||||   ++####%$%&%&&**>*>>,,:,<2226697700aasqt!}}(BdhghhkkkzkzzzkkkkkhhhhfB(}}!rqs00000676626<<,<,,>>===*&&%%%%$$$#++++  |||||",
"|||||| ..+++##$$%%%%&&***>>>,,,<<422267700q0asst!}}(BddgkkkkkkzkzzzzkzlhgghdB(}}!rqss0000766222<<<<;,>>=-**&&&%%%$$#@+++   |||||",
"||||||  .+.###$$$%%&&&**-*>>,,<,<42266977000aase!}}(BfdghkkkzzzzzzzzklkhggdfB(}}!rss0s007776662<<<<,,>>=**&*&%%%$%$#+++++  |||||",
"|||||| ..++@#$$$@%%%&*&**=>>,,,<<22266777000qssr!}}(BdddggkkllkzzzzklkkkkhhfB(}}!tqsa0007779222<<<<,>>>*****&&%%%$%.%..%.. |||||",
"||||||   +++##$$%%%&&&**>>>>,<,,<:255577700sqqsr!}}(BdghkglllllzzzzzzkkkghhfB(}}!tqssa007779692<<<<,,>>>>*&&&%%%%..%...... |||||",
"|||||| ..++@#$$$%%%%&&***>>>><<<<<226667700aseqr!}}(BfhhgkkkllzzzlkzzkkkgghdB(}}!tss0a0079926<6<<<<,,>>>****&&%%%.%..%.%...|||||",
"||||||   ++@##$$@%%&&&***=>>>,<,<22566767000qqsr!}}(BdhhgkkklkzlkzzkkkkkghhfB(}}!rqas000777766<2<<<,,,>*-**&&&%$%%%$%..... |||||",
"||||||  ..++#$$$%$%&&&**=>=>,,<,<<5566677700ss0r!}}(BshhkhkkkkkzlkkkkzkhhhhsB(}}!tqaa000777622<<<,,,,>>*=&*&&%%%%..%.....  |||||",
"||||||  .+++#$$$%%%%&&***>>>,,,<:52656777q000asr!}}(BfhhhhkkkkljhklkkkhkghhfB(}}!tqsaq0077629222<<<,,>>>=**&&&$%%%%..%...  |||||",
"||||||  ..+####%$%%%&&***>->>,<,<2:55677770aassr!}}(pfdhhhhkkluxvxukkkhhhddfB(}}!tas0007777922<<<<<,>>>*=&*&&&$%%%.%%.%... |||||",
"||||||  . ++##$$$$%%&&**=*>>,,,<<:25556770000aqr!}}(BshdhhhhhjNR/RNhhhhhgddfB(}}!raaa0007799222<<,,,,>>-***&&%%%%.%......  |||||",
"|||||||  .++@@#$%%%%&&&&&>>>>,<,<<52557677900sqe!}}(BsdddghggdV`}_Vjgggddhdfp(}}!raa7a07776622<<<,,,>>>=**&&%%%%$%$$#++.. ||||||",
"||||||| ..+++@$$$$%%%&&**==>>,,,<<<<2666770000qr!}}(pftddddhhjV_}_Vjgdjddtdsi(}}!rqqa7079662224<,<,,>>*-=&*&&%%$$$###++.  ||||||",
"||||||| ..++@@#$$$%%&&&*====>>,,<<<2226677900a0e!}}(psdddddddfV_}_Vjgddddddsp(}}!e0q7077766224<<<<,,>>>***&&%%%%%####++ . ||||||",
"|||||||  .+.+@#$$%%%&&&*&==>>,,<,<<<<2666600000e!}}(isfdddddddV_}_Vdddddddssi(}}!e0aa77766622<<<,,,,>>>=**&&%%%$%####.+.  ||||||",
"|||||||  ..+@@@$$$$%%%&&&==>>>,<,<<<25666777700e!}}(isfsddfdtdV_}_VfdddtfdfqB(}}!e70777766222<<<,,,>>*>**&&&%$%$$$###++.  ||||||",
"|||||||  ..+.@@$$$%%%&&&&===>>>,,<:<2<266677007e!}}(isftfttddsV_}_Vfdtdfttssi(}}!e0777766622<<<<<,,>>>***&&&%%%$$#$#+.    ||||||",
"|||||||| ..+.$@$$%%%%&&&&=*=>>>,,<<<:2222677707e!}}(issstfdtfsV_}_Vadfdtfssqi(}}!e7q77766222<<<,,,,>>>****&&%%$%$$##++.. |||||||",
"|||||||| ..+.@@@@$$%$&&&&&*>>>>,,,<<<2259997777e!}}(i0ssssfsssV_}_Batsfssssqi(}}!e0777666242<<<<,,>>>***&&%%%%$$$###++.  |||||||",
"||||||||  .++++#$$$&$&&&&***=>>>,,<<<<2227767770!}}(i0sssssssqB_}_Bstsssdaaqi(}}!e77776222:2<:,,,,=,===&&&&%%%%$####+..  |||||||",
"||||||||| ..++##$$$$$&&&&&**==>>,,,<<<2<<926772e!}}(i00sssssdqB_}_Bsfssssaa7i(}}!7677692222<<<<,,=,==***&&%%%%@$$##+++  ||||||||",
"|||||||||  .++###$$&$&%&&&**==>>,,,,<<<<2222669e!}}(iw0sasrsa0V_}_Bqsssaaas0i([}!e6662222244<<,,,====**&&&%%$$$$@#@+.   ||||||||",
"|||||||||  ..+###$$$&$$&&&***==>>,,,<<<<22926623~}}_u90ae0sqsqB`}`B0sesaaq09i(}}~166692244:,,,,,,====&&&&%%%$$$$@#++++  ||||||||",
"|||||||||| ..+++#$$$$&&$&&&**===>>,,<<<<2<<62273H^^Je000000s00tJIJt00s0a0007rJ^^H26726224<<<,,,>====**&&&%%%$$$$@@++.  |||||||||",
"||||||||||  ..++###$$$$&&&&&**==>>>,,,,<<2<226996<<677000000aa0777aa0000q700752<2662222<<<,:,,,>====***&%%%$%$$###++.  |||||||||",
"||||||||||  ..++@@@%$%$%%&&&&**=>>>,,,<<<<<6<92626977707000000000000000000776766629222<<<<,<,,>>===&&&&&%%%%%@@@#++..  |||||||||",
"||||||||||| ..++@@@$$$$%%&&&***==>>>,,,<<<<2<2<6666677070070700000000707777776666226<2<<<,<,,>>>=**=**%%%%$$@%@@##+.. ||||||||||",
"|||||||||||    ++@@@%@%%%%&&&***===>>,><<<<<<9<29666666697707000777077777677666666<2<<<<<,,,>>>==**&*&%%%%$$$$#+++ +  ||||||||||",
"|||||||||||| +.++@@@@%@%%%%%&&***==>>>,,,,,<<<22<6266666776677677777777667666665<22<<<<,,,,>>>===**&&&&%%$$$$@##+++  |||||||||||",
"||||||||||||   +++@@@$$%$%%&&&***==>>>>,,<,<<<<<22226666666667667776766766656<<622<<<<<,,,>>>=*****&%%%%$%$$@@@++    |||||||||||",
"|||||||||||||   .++@@$$$$%%%%&&&***=>>>>,,,<<<<<<2<6<656666666666666666666556<6<<<<<<,,,,,>>>>***&&&&%%%%$$$@@##+++ ||||||||||||",
"|||||||||||||  ++.+@@@$$$%%%%%&&***=>>>>,,,,<<<<<<<<<65622666266566626522252<2<<<<<<,,,,>>>==****&&%%%%$%#$$++++    ||||||||||||",
"||||||||||||||  ..++@@@$$$$%%%&&&****==>>>,,,,,,<<<<<<<<<66<62<6562522622222<<<<<<,,,,,>>>>=****&&%%%%%$$$##@++++  |||||||||||||",
"||||||||||||||  ..++@@@$$$$%%%%&&&&**====>,>,,<,<,<<<2<62<<<<222<52522<5:5<<<<<<,,<,,,>>>===****&&%%%$$$$###+++    |||||||||||||",
"||||||||||||||| ...++@@@$$@%%%%%&&&****==>>>>,,,,,,<<<<<<<<62<<:5<<<:2<<<<<<:<,<<,,,,>>>==*****&&&%%%%%$$$#+++++  ||||||||||||||",
"|||||||||||||||| ...+++@##%@%%%%%%%&&&**===>>>>,,,,<,<<<<<<<<<<<<<<<<<<<<,<<8,,,,,>>>=====&*&&&&%%%$%$$$@@@+++.. |||||||||||||||",
"||||||||||||||||  ..++++#$$@@%$%%%&&=&***====>>,>>,,,,,,,<<,,<<<<:<<,<,<<<,,,,,,>,>>>===*=**&&&&%%%%@$$$##++++.. |||||||||||||||",
"|||||||||||||||||  . +++###%$$$%%%%%&&&***====>>>>,,>,,,<,,<<<,<,<<,<,:,,,,,>,,>>>>====***&&&&&$%$%$$$##++++..  ||||||||||||||||",
"||||||||||||||||||  + ++@@@@$$$$%%%%&&&*****====>>>>,,,,,,,,,,,,,,,<,,,,,,,,>>>>>====****&&&&&&$%%$$$#$#+++... |||||||||||||||||",
"||||||||||||||||||  ..++++#@$$$$%%%%%&&&&&***======>>>>>,>,,,,>;,,,,,,>,>>>>>>=====*=**&&&&&&$&$$$$$$###++.+   |||||||||||||||||",
"|||||||||||||||||||   .+++##@$@%$$%%%%&&&&&*&***======>>>>>>>>>>>>>>>>>>>>>>=====***&*&&&%%%%&%%$$$$###+++    ||||||||||||||||||",
"||||||||||||||||||||  ..+++##$@$$%$%$%%%&&&&**&****=======>>>>>>>>>>>>>>=>====*=***&&&&&%&%%$$$%$$$##++++ +  |||||||||||||||||||",
"|||||||||||||||||||||  ..+++#@@@$$$$%%%%%&%&&&*&****==========->======-*=*>**=*****&&&&&%%%$$%$$$$##+++++   ||||||||||||||||||||",
"|||||||||||||||||||||| ....+++##@$%$$$$$%%%&&&&&&***=**=**>***-*===***-==****&*&&&&&%&%%%%%$$%$$$###++...  |||||||||||||||||||||",
"||||||||||||||||||||||| . ..+++#@@#$$$%%$%%%%%&&&&&&&*&*****-***=***=*&&*****&&&&&&%%%%%$%$%$@#$###+++... ||||||||||||||||||||||",
"||||||||||||||||||||||||  ...++++@##$@$%%$%$%%&%&&&&&&&&**&*****&********&&&&&%&%%%%%%%$%$$$@$##++++.... |||||||||||||||||||||||",
"||||||||||||||||||||||||| ...++++###%#$$$$%$%$%%%%%&%&&&&&&&&&&&&&*&&&&&&&&&&&&%%%%%%%%$$$$$$###+++.... ||||||||||||||||||||||||",
"||||||||||||||||||||||||||  ....++###$@$$$$%%%%%%$%%%&&&&&&&&&&&&&&&&&&%%%%%%%$%%$$%@$$$$$$@##++++...  |||||||||||||||||||||||||",
"|||||||||||||||||||||||||||  ....+++##@@#$$$$$$$$%%%%%%%%%%&%&%%%&&&&&&%%%%%$%%%$$%%@%%@@@###++++...  ||||||||||||||||||||||||||",
"||||||||||||||||||||||||||||   ....+++##@@#$$$$$$%$$$%%%%%.%%%%%%%%%%%%.%%%%%$%%$%$$$$##@@+++++....  |||||||||||||||||||||||||||",
"|||||||||||||||||||||||||||||| ....+++#@@##@$$$$$%$%$%$$%%%%%%%%%%&&.%&&%$%%%$$$@%$$@###++++++...  |||||||||||||||||||||||||||||",
"|||||||||||||||||||||||||||||||   ...+++#######$$$$$$$$$$%%$%$%%.%.%&%%%.%%.%%.%$@@#@##+++++....  ||||||||||||||||||||||||||||||",
"|||||||||||||||||||||||||||||||||  . ..+.+++#######$$$$$$$$%$$$$%%.%.%.%.%$$$$%.@#$###++++..+   ||||||||||||||||||||||||||||||||",
"||||||||||||||||||||||||||||||||||   ....++++++#####$$#$#$$##$$$.%%%.%.%%.%%%...#++++++.....   |||||||||||||||||||||||||||||||||",
"||||||||||||||||||||||||||||||||||||   . . +++++##@##@##$#$#$#$#%%..%.%%.%...%.$#+++++.....  |||||||||||||||||||||||||||||||||||",
"||||||||||||||||||||||||||||||||||||||   ....+++#+++###@.#######...%.%..$$$.$$..+ +. + +  .|||||||||||||||||||||||||||||||||||||",
"||||||||||||||||||||||||||||||||||||||||    . ..+.+..#++.$####.#.%.%..%....$..$.++ +     |||||||||||||||||||||||||||||||||||||||",
"||||||||||||||||||||||||||||||||||||||||||     .....#...#..#+.++..%...%.........+      |||||||||||||||||||||||||||||||||||||||||",
"|||||||||||||||||||||||||||||||||||||||||||||    .........+.++.+................    ||||||||||||||||||||||||||||||||||||||||||||",
"||||||||||||||||||||||||||||||||||||||||||||||||       . .....+.............     |||||||||||||||||||||||||||||||||||||||||||||||",
"|||||||||||||||||||||||||||||||||||||||||||||||||||        ..    .      ....  ||||||||||||||||||||||||||||||||||||||||||||||||||",
"|||||||||||||||||||||||||||||||||||||||||||||||||||||||||               ||||||||||||||||||||||||||||||||||||||||||||||||||||||||",
"||||||||||||||||||||||||||||||||||||||||||||||||||||||||||||||||||||||||||||||||||||||||||||||||||||||||||||||||||||||||||||||||",
"||||||||||||||||||||||||||||||||||||||||||||||||||||||||||||||||||||||||||||||||||||||||||||||||||||||||||||||||||||||||||||||||",
"||||||||||||||||||||||||||||||||||||||||||||||||||||||||||||||||||||||||||||||||||||||||||||||||||||||||||||||||||||||||||||||||",
"||||||||||||||||||||||||||||||||||||||||||||||||||||||||||||||||||||||||||||||||||||||||||||||||||||||||||||||||||||||||||||||||",
"||||||||||||||||||||||||||||||||||||||||||||||||||||||||||||||||||||||||||||||||||||||||||||||||||||||||||||||||||||||||||||||||"
};
